<svg width="51" height="43" viewBox="0 0 51 43" fill="none" xmlns="http://www.w3.org/2000/svg">
<path d="M22.785 8.27999L15.495 0.179993C7.26 6.255 0.51 17.325 0.51 29.61C0.51 37.575 5.91 42.03 12.39 42.03C18.735 42.03 23.73 36.765 23.73 30.42C23.73 25.56 20.49 20.565 14.415 19.215C15.09 14.895 19.95 10.17 22.785 8.27999ZM49.785 8.27999L42.495 0.179993C34.26 6.255 27.51 17.325 27.51 29.61C27.51 37.575 32.91 42.03 39.39 42.03C45.735 42.03 50.73 36.765 50.73 30.42C50.73 25.56 47.49 20.565 41.415 19.215C42.09 14.895 46.95 10.17 49.785 8.27999Z" fill="#0700FF"/>
</svg>
