<svg width="47" height="44" viewBox="0 0 47 44" fill="none" xmlns="http://www.w3.org/2000/svg">
<ellipse cx="23.1716" cy="22" rx="23.1716" ry="22" fill="#04008A"/>
<path d="M31.1808 14.4167H19.1525C18.2859 14.4167 17.5833 15.1193 17.5833 15.986V32.3481C17.5833 33.2147 18.2859 33.9173 19.1525 33.9173H31.1813C32.048 33.9173 32.7505 33.2147 32.7505 32.3481V15.986C32.75 15.1193 32.0474 14.4167 31.1808 14.4167Z" fill="#0903D1" fill-opacity="0.51"/>
<path d="M30.8541 25.7455V13.604C30.8541 12.7065 30.1267 11.979 29.2291 11.979H16.7708C15.8733 11.979 15.1458 12.7065 15.1458 13.604V14.8661" stroke="#FBFBFB" stroke-width="2" stroke-miterlimit="10" stroke-linecap="round" stroke-linejoin="round"/>
<path d="M15.1458 18.416V30.3961C15.1458 31.2936 15.8733 32.0211 16.7708 32.0211H29.2291C30.1267 32.0211 30.8541 31.2936 30.8541 30.3961V29.1112" stroke="#FBFBFB" stroke-width="2" stroke-miterlimit="10" stroke-linecap="round" stroke-linejoin="round"/>
<path d="M23.0775 16.3658C22.7129 16.3138 22.3484 16.3658 21.9324 16.4178C20.3188 16.7303 19.0171 18.0314 18.7051 19.645C18.3926 21.3627 19.1217 22.9243 20.3708 23.8094V25.1283C20.3708 25.7014 20.8393 26.1699 21.4113 26.1699H24.0146C24.5876 26.1699 25.0562 25.7014 25.0562 25.1283V23.8094C26.0978 23.0803 26.8258 21.8312 26.8258 20.4261C26.8258 19.4365 26.4613 18.5519 25.9407 17.8754" stroke="#FBFBFB" stroke-width="2" stroke-miterlimit="10" stroke-linecap="round" stroke-linejoin="round"/>
<path d="M23.0255 27.2628H22.5049C21.9319 27.2628 21.4633 26.7943 21.4633 26.2212H24.0666C24.0666 26.7943 23.5986 27.2628 23.0255 27.2628Z" stroke="#FBFBFB" stroke-width="2" stroke-miterlimit="10" stroke-linecap="round" stroke-linejoin="round"/>
</svg>
