<svg width="32" height="32" viewBox="0 0 32 32" fill="none" xmlns="http://www.w3.org/2000/svg">
<path d="M30.7333 18.7333C27.9333 17.6667 23.4667 14.1333 23.4667 14.1333C22.8 13.6 22.1333 13.2667 21.5333 12.9333L23.9333 10.2C24.6 9.46667 24.6667 8.33334 24.0667 7.53334C23.2667 6.46667 21.7333 6.46667 20.8667 7.46667L16.5333 12.4667L11.2 14C10.4667 14.2 9.86666 14.6 9.33333 15.2L4.53333 20.7333C3.73333 21.6 3.8 23.0667 4.66666 23.8C5.06666 24.1333 5.53333 24.2667 6 24.2667C6.06666 24.2667 6.2 24.2667 6.26666 24.2667L12.8 16.6667L5.06666 25.6C4.93333 25.8 4.8 26 4.73333 26.2L4.06666 29.2667C4 29.5333 4.26666 29.7333 4.53333 29.6667L7.53333 28.6C7.73333 28.5333 7.93333 28.4 8.13333 28.2L11.4667 24.3333C11.5333 25.1333 12.0667 25.9333 12.8667 26.2667C12.8667 26.2667 17.1333 28.4 17.2667 28.4667C18.1333 28.9333 19.8 29.8667 22.3333 29.8667C24.2667 29.8667 25.2 29.5333 26.2667 29.2C27.4667 28.8 29.7333 28.5333 29.8667 28.5333C31 28.5333 31.8667 27.6 31.8667 26.4667V20.5333C32 19.8 31.4667 19 30.7333 18.7333Z" fill="#EBC414"/>
<path d="M14.6 9.86667L9.4 11.3333C8.73333 11.5333 8.06667 11.9333 7.6 12.4667L2.93333 17.8667C2.2 18.7333 2.2 20.1333 3.06667 20.8667C3.46667 21.2 3.93333 21.3333 4.33333 21.3333C4.4 21.3333 4.53333 21.3333 4.6 21.3333" stroke="#242424" stroke-width="3" stroke-miterlimit="10" stroke-linecap="round"/>
<path d="M21.9333 4.46667L22.3333 4" stroke="#242424" stroke-width="4" stroke-miterlimit="10" stroke-linecap="round"/>
<path d="M27.7333 25.6667C28.8 25.6667 29.6667 24.7333 29.6667 23.6667V17.8667C29.6667 17.0667 29.2 16.2667 28.4 16C25.6667 15 21.3333 11.5333 21.3333 11.5333C20.6667 11.0667 20.0667 10.6667 19.4667 10.4" stroke="#242424" stroke-width="3" stroke-miterlimit="10" stroke-linecap="round"/>
<path d="M19.6667 18.3333C19 19.3333 18 19.6667 17 19.6667C16.6667 19.6667 16 19.6667 14.1333 19.3333C13.2667 19.2 12.5333 19 12 19C11.0667 19 10.1333 19.6 9.79999 20.5333C9.39999 21.6667 9.93333 23 11.0667 23.4667C11.0667 23.4667 15.2667 25.5333 15.3333 25.6C16.2 26.0667 17.8 26.9333 20.2667 26.9333C21.2 26.9333 21.8667 26.8667 22.4667 26.7333" stroke="#242424" stroke-width="3" stroke-miterlimit="10" stroke-linecap="round"/>
<path d="M14.9333 15.5333L11.9333 19" stroke="#242424" stroke-width="3" stroke-miterlimit="10" stroke-linecap="round" stroke-linejoin="round"/>
<path d="M9.66666 21.6L6.4 25.4C6.26666 25.6 6.06666 25.7333 5.79999 25.8L2.33333 27L3.06666 23.3333C3.13333 23.1333 3.19999 22.8667 3.33333 22.7333L18.8 5C19.6 4.06667 21.0667 4.06667 21.8667 5.06667C22.4667 5.8 22.4 6.93334 21.7333 7.66667L17.2667 12.8" stroke="#242424" stroke-width="3" stroke-miterlimit="10" stroke-linecap="round" stroke-linejoin="round"/>
</svg>
