<svg width="112" height="112" viewBox="0 0 112 112" fill="none" xmlns="http://www.w3.org/2000/svg">
<path d="M106.253 104.011C104.599 96.7518 100.954 82.5325 96.9803 78.5612C93.8583 75.4392 89.614 74.1325 85.5447 74.6155L85.6543 74.5058L80.1267 68.3622L101.164 47.3248C105.805 42.6838 106.563 35.1495 102.389 30.0862C97.6033 24.2785 88.9793 23.9705 83.7877 29.1645L63.2987 49.6535L45.444 29.8038C41.02 24.9155 33.4087 24.7265 28.749 29.3862C24.0893 34.0458 24.2783 41.6595 29.1667 46.0812L48.7853 64.1668L33.0913 79.8608C32.2303 80.7195 31.6167 81.7928 31.3087 82.9712L26.215 102.41C25.8813 103.682 27.041 104.839 28.3127 104.508L47.7517 99.4142C48.9277 99.1062 50.001 98.4902 50.862 97.6315L67.2793 81.2142L73.353 86.8118L73.4627 86.7022C72.975 90.7715 74.284 95.0158 77.4083 98.1378C81.382 102.111 95.599 105.756 102.86 107.41C104.902 107.875 106.72 106.057 106.253 104.011Z" fill="#E6C13C"/>
<path d="M50.1807 79.9676L41.1973 88.951C40.32 89.8283 39.2233 90.4583 38.0217 90.7733L18.1673 95.9743C16.87 96.3149 15.6847 95.1296 16.0253 93.8323L21.2263 73.978C21.5413 72.7763 22.169 71.6796 23.0487 70.8023L30.5433 63.3076" stroke="#FBFBFB" stroke-width="2" stroke-miterlimit="10" stroke-linecap="round" stroke-linejoin="round"/>
<path d="M54.6607 39.3678L74.83 19.0234C80.1337 13.7174 88.9397 14.0301 93.8303 19.9638C98.0933 25.1368 97.3163 32.8321 92.5773 37.5711L78.428 51.7204" stroke="#FBFBFB" stroke-width="2" stroke-miterlimit="10" stroke-linecap="round" stroke-linejoin="round"/>
<path d="M75.6396 33.8354L85.071 43.2644" stroke="#FBFBFB" stroke-width="2" stroke-miterlimit="10" stroke-linecap="round" stroke-linejoin="round"/>
<path d="M42.6603 27.4516L35.6673 19.6769C31.15 14.6836 23.3753 14.4899 18.6153 19.2499C13.8553 24.0099 14.049 31.7846 19.0423 36.3019L64.1667 77.9006L64.2787 77.7886C63.7817 81.9443 65.1187 86.2796 68.3083 89.4693C70.378 91.539 75.1707 93.5223 80.3553 95.193" stroke="#FBFBFB" stroke-width="2" stroke-miterlimit="10" stroke-linecap="round" stroke-linejoin="round"/>
<path d="M92.7827 98.5878C96.2943 99.4138 98.728 99.8944 98.728 99.8944C98.728 99.8944 93.8257 74.9954 88.3027 69.4748C85.113 66.2851 80.78 64.9504 76.622 65.4451L76.734 65.3331L49.2823 34.8154" stroke="#FBFBFB" stroke-width="2" stroke-miterlimit="10" stroke-linecap="round" stroke-linejoin="round"/>
<path d="M76.734 65.3335L64.1667 77.9008" stroke="#FBFBFB" stroke-width="2" stroke-miterlimit="10" stroke-linecap="round" stroke-linejoin="round"/>
<path d="M51.3333 64.1668L64.1667 51.3335" stroke="#FBFBFB" stroke-width="2" stroke-miterlimit="10" stroke-linecap="round" stroke-linejoin="round"/>
</svg>
