<svg width="19" height="19" viewBox="0 0 19 19" fill="none" xmlns="http://www.w3.org/2000/svg">
<g opacity="0.9">
<path d="M5.70001 15.8332H2.53334V6.33324H5.70001V15.8332ZM4.11731 5.06657C3.24141 5.06657 2.53334 4.3566 2.53334 3.4826C2.53334 2.6086 3.24267 1.8999 4.11731 1.8999C4.99004 1.8999 5.70001 2.60987 5.70001 3.4826C5.70001 4.3566 4.99004 5.06657 4.11731 5.06657ZM17.1 15.8332H14.0556V11.2099C14.0556 10.1073 14.0347 8.68924 12.4729 8.68924C10.8876 8.68924 10.6438 9.89004 10.6438 11.1301V15.8332H7.60001V6.32627H10.5222V7.62524H10.5634C10.97 6.8779 11.9637 6.09004 13.4457 6.09004C16.53 6.09004 17.1 8.05907 17.1 10.619V15.8332Z" fill="#FBFBFB"/>
</g>
</svg>
