<svg width="47" height="44" viewBox="0 0 47 44" fill="none" xmlns="http://www.w3.org/2000/svg">
<ellipse cx="23.1894" cy="22" rx="23.1716" ry="22" fill="#323336"/>
<path d="M29.6083 32.725H19.3167C18.5042 32.725 17.9625 31.8583 18.2875 31.1L20.5625 25.9C20.725 25.4667 21.1583 25.25 21.5917 25.25H27.1167C27.55 25.25 27.9292 25.5208 28.0917 25.9L30.5833 31.1C30.9625 31.8042 30.4208 32.725 29.6083 32.725Z" fill="#0061FE" fill-opacity="0.7"/>
<path d="M28.6333 28.1206L28.9583 28.8248C29.3375 29.529 28.7958 30.3956 27.9833 30.3956H17.9083C17.0958 30.3956 16.6083 29.5831 16.9333 28.879L17.6375 27.3623" stroke="#FBFBFB" stroke-width="2" stroke-linecap="round" stroke-linejoin="round"/>
<path d="M18.775 24.8706L19.2083 23.9498C19.3708 23.5706 19.75 23.2998 20.1833 23.2998H25.6C26.0333 23.2998 26.4125 23.5165 26.575 23.8956L27.6042 25.8456" stroke="#FBFBFB" stroke-width="2" stroke-linecap="round" stroke-linejoin="round"/>
<path d="M15.6875 16.854C15.6875 16.854 18.6667 19.0207 23 19.0207C27.3333 19.0207 30.3125 16.854 30.3125 16.854" stroke="#FBFBFB" stroke-width="2" stroke-linecap="round"/>
<path d="M33.0208 15.4998C33.7687 15.4998 34.375 14.8936 34.375 14.1457C34.375 13.3978 33.7687 12.7915 33.0208 12.7915C32.2729 12.7915 31.6667 13.3978 31.6667 14.1457C31.6667 14.8936 32.2729 15.4998 33.0208 15.4998Z" fill="#FBFBFB"/>
<path d="M33.0208 30.3958V16.3125" stroke="#FBFBFB" stroke-width="2" stroke-linecap="round"/>
<path d="M31.9375 30.396H34.1042" stroke="#FBFBFB" stroke-width="2" stroke-linecap="round"/>
<path d="M12.9792 15.4998C13.7271 15.4998 14.3333 14.8936 14.3333 14.1457C14.3333 13.3978 13.7271 12.7915 12.9792 12.7915C12.2313 12.7915 11.625 13.3978 11.625 14.1457C11.625 14.8936 12.2313 15.4998 12.9792 15.4998Z" fill="#FBFBFB"/>
<path d="M12.9792 16.3125V30.3958" stroke="#FBFBFB" stroke-width="2" stroke-linecap="round"/>
<path d="M11.8958 30.396H14.0625" stroke="#FBFBFB" stroke-width="2" stroke-linecap="round"/>
</svg>
