<svg width="42" height="42" viewBox="0 0 42 42" fill="none" xmlns="http://www.w3.org/2000/svg">
<path d="M29.925 39.2875C29.925 38.7625 30.275 38.325 30.7125 38.2375L34.7375 37.1875C35.875 36.925 36.6625 35.875 36.6625 34.7375V29.575L40.075 28.35C40.95 28.0875 41.2125 27.0375 40.6875 26.3375L36.575 21.2625C35.9625 13.825 29.8375 7.875 22.3125 7.875C14.35 7.875 7.875 14.525 7.875 22.75C7.875 27.0375 9.7125 30.975 12.5125 33.6875C13.825 34.9125 14.6125 36.6625 14.6125 38.5V39.55C14.6125 40.95 15.575 41.9125 16.8 41.9125H27.3875C28.7875 41.9125 29.925 40.6875 29.925 39.2875Z" fill="#F2CD02"/>
<path d="M27.5625 35.2626L31.7625 34.2126C32.9 33.9501 33.775 32.9001 33.775 31.6751V26.3376L37.275 25.1126C38.15 24.8501 38.4125 23.8001 37.8875 23.0126L33.6875 17.7626C32.9875 9.9751 26.6875 3.8501 18.9 3.8501C16.5375 3.8501 14.2625 4.4626 12.25 5.4251" stroke="#100C08" stroke-width="2" stroke-linecap="round" stroke-linejoin="round"/>
<path d="M6.7375 10.325C4.9875 12.8625 3.9375 15.925 3.9375 19.25C3.9375 23.7125 5.775 27.7375 8.75 30.45C10.15 31.7625 10.9375 33.5125 10.9375 35.35V36.4C10.9375 37.8 11.9 38.85 13.2125 38.85H24.0625" stroke="#100C08" stroke-width="2" stroke-linecap="round" stroke-linejoin="round"/>
<path d="M14.4375 14.9625L13.5625 14.6125C12.6875 15.575 11.9875 16.7125 11.6375 17.9375L12.3375 18.55C12.775 18.9 13.125 19.5125 13.125 20.125C13.125 20.7375 12.8625 21.35 12.3375 21.7L11.6375 22.3125C11.9875 23.625 12.6875 24.7625 13.5625 25.6375L14.4375 25.2875C15.05 25.1125 15.6625 25.1125 16.1875 25.4625C16.7125 25.8125 17.0625 26.3375 17.15 26.8625L17.325 27.7375C17.9375 27.9125 18.55 28 19.25 28C19.95 28 20.5625 27.9125 21.175 27.7375L21.35 26.8625C21.4375 26.25 21.7875 25.725 22.3125 25.4625C22.8375 25.2 23.45 25.1125 24.0625 25.2875L24.9375 25.6375C25.8125 24.675 26.5125 23.5375 26.8625 22.3125L26.1625 21.7C25.6375 21.35 25.375 20.7375 25.375 20.125C25.375 19.5125 25.6375 18.9 26.1625 18.55L26.8625 17.9375C26.5125 16.625 25.8125 15.4875 24.9375 14.6125L24.0625 14.9625C23.45 15.1375 22.8375 15.1375 22.3125 14.7875C21.7875 14.4375 21.4375 13.9125 21.35 13.3875L21.175 12.5125C20.5625 12.3375 19.95 12.25 19.25 12.25C18.55 12.25 17.9375 12.3375 17.325 12.5125" stroke="#100C08" stroke-width="2" stroke-linecap="round" stroke-linejoin="round"/>
<path d="M19.25 21.875C20.2165 21.875 21 21.0915 21 20.125C21 19.1585 20.2165 18.375 19.25 18.375C18.2835 18.375 17.5 19.1585 17.5 20.125C17.5 21.0915 18.2835 21.875 19.25 21.875Z" fill="#100C08"/>
</svg>
