<svg width="46" height="46" viewBox="0 0 46 46" fill="none" xmlns="http://www.w3.org/2000/svg">
<path d="M22.0417 37.375C29.9808 37.375 36.4167 30.9391 36.4167 23C36.4167 15.0609 29.9808 8.625 22.0417 8.625C14.1026 8.625 7.66669 15.0609 7.66669 23C7.66669 30.9391 14.1026 37.375 22.0417 37.375Z" fill="#E9BE00" fill-opacity="0.5"/>
<path d="M38.2107 39.7708H40.7292" stroke="#242424" stroke-width="2" stroke-miterlimit="10" stroke-linecap="round" stroke-linejoin="round"/>
<path d="M5.27081 39.7708H32.522" stroke="#242424" stroke-width="2" stroke-miterlimit="10" stroke-linecap="round" stroke-linejoin="round"/>
<path d="M12.3194 22.9338C9.24981 27.8903 5.27081 31.1458 5.27081 31.1458" stroke="#242424" stroke-width="2" stroke-miterlimit="10" stroke-linecap="round" stroke-linejoin="round"/>
<path d="M40.7291 19.6459C37.8541 22.0417 38.1646 25.3959 36.4166 25.3959C34.0208 25.3959 34.9791 17.7292 33.5416 17.7292C32.1041 17.7292 30.6935 27.3126 25.875 27.3126C22.1768 27.3126 20.6041 22.7174 20.6041 19.6459C20.6041 15.551 21.8778 12.9376 24.4375 12.9376C26.3541 12.9376 27.3125 14.8542 27.3125 16.2917C27.3125 21.5626 20.078 30.1876 12.9375 30.1876C7.99727 30.1876 5.27081 24.5794 5.27081 18.2084C5.27081 11.1714 7.66665 6.22925 11.5 6.22925C14.8541 6.22925 15.8125 10.0626 15.8125 11.9792C15.8125 13.8116 15.4943 15.5855 14.9682 17.2673" stroke="#242424" stroke-width="2" stroke-miterlimit="10" stroke-linecap="round" stroke-linejoin="round"/>
</svg>
