<svg width="42" height="42" viewBox="0 0 42 42" fill="none" xmlns="http://www.w3.org/2000/svg">
<path d="M37.5375 32.375H11.4625C10.0625 32.375 8.92499 31.2375 8.92499 29.8375V12.1625C8.92499 10.7625 10.0625 9.625 11.4625 9.625H37.625C39.025 9.625 40.1625 10.7625 40.1625 12.1625V29.8375C40.075 31.2375 38.9375 32.375 37.5375 32.375Z" fill="#F2CD02"/>
<path d="M25.8125 29.3125H7.4375C5.95 29.3125 4.8125 28.175 4.8125 26.6875V8.3125C4.8125 6.825 5.95 5.6875 7.4375 5.6875H9.975" stroke="#100C08" stroke-width="2" stroke-linecap="round" stroke-linejoin="round"/>
<path d="M14.7875 5.6875H34.5625C36.05 5.6875 37.1875 6.825 37.1875 8.3125V26.6875C37.1875 28.175 36.05 29.3125 34.5625 29.3125H31.15" stroke="#100C08" stroke-width="2" stroke-linecap="round" stroke-linejoin="round"/>
<path d="M11.8125 36.3125H30.1875" stroke="#100C08" stroke-width="2" stroke-linecap="round" stroke-linejoin="round"/>
<path d="M25.8125 29.3125V36.3125" stroke="#100C08" stroke-width="2" stroke-linecap="round" stroke-linejoin="round"/>
<path d="M16.1875 29.3125V36.3125" stroke="#100C08" stroke-width="2" stroke-linecap="round" stroke-linejoin="round"/>
<path d="M14.4375 17.9375L18.8125 22.3125L27.5625 13.5625" stroke="#100C08" stroke-width="2" stroke-linecap="round" stroke-linejoin="round"/>
</svg>
