<svg width="42" height="42" viewBox="0 0 42 42" fill="none" xmlns="http://www.w3.org/2000/svg">
<path d="M38.5875 24.9375C38.5875 24.85 38.675 24.85 38.5875 24.9375C38.5875 24.85 38.5875 24.85 38.5875 24.9375Z" fill="#F2CD02"/>
<path d="M41.2125 24.675C40.1625 23.625 38.7625 23.7125 37.45 24.675C36.1375 25.6375 28.525 31.325 28.525 31.325H28.4375C29.05 30.8875 29.4875 30.1875 29.575 29.3125C29.6625 27.7375 28.4375 26.5125 26.95 26.5125H23.1C17.9375 26.5125 17.85 25.6375 14.875 25.6375C10.5 25.6375 7.4375 30.1 6.3 32.1125C5.95 32.725 6.0375 33.5125 6.3875 34.0375L10.325 39.375C11.025 40.25 12.3375 40.3375 13.0375 39.55C13.7375 38.7625 14.7875 38.0625 16.3625 38.0625C19.95 38.0625 23.5375 38.9375 26.95 38.9375C29.4875 38.9375 31.5875 36.4875 41.2125 28.35C42.2625 27.3 42.2625 25.6375 41.2125 24.675Z" fill="#F2CD02"/>
<path d="M19.6 35.0877C21.0875 35.2627 22.575 35.4377 24.0625 35.4377C26.5125 35.4377 28.7 32.9877 38.2375 25.0252L38.15 25.1127C39.2 24.0627 39.2 22.4002 38.15 21.4377C37.1 20.3877 35.7875 20.4752 34.475 21.4377C34.0375 21.7877 32.9875 22.5752 31.7625 23.4502" stroke="#100C08" stroke-width="2" stroke-linecap="round" stroke-linejoin="round"/>
<path d="M17.9375 28.4375H23.8875C25.2875 28.4375 26.6 27.3875 26.6875 25.9875C26.775 24.5 25.55 23.1875 24.0625 23.1875H20.2125C15.1375 23.1875 15.05 22.3125 12.075 22.3125C7.7 22.3125 4.725 26.6875 3.5875 28.7C3.2375 29.3125 3.325 30.0125 3.675 30.625L7.525 35.875C8.1375 36.75 9.5375 36.8375 10.2375 36.05C10.9375 35.2625 11.9875 34.5625 13.5625 34.5625" stroke="#100C08" stroke-width="2" stroke-linecap="round" stroke-linejoin="round"/>
<path d="M19.075 14.7001L21.9625 17.5876C22.6625 18.2876 23.7125 18.2876 24.4125 17.5876L29.925 12.0751C31.4125 10.5876 31.4125 8.2251 29.925 6.8251C28.4375 5.3376 26.075 5.3376 24.675 6.8251L23.1875 8.2251L21.7 6.8251C20.2125 5.3376 17.85 5.3376 16.45 6.8251C14.9625 8.3126 14.9625 10.6751 16.45 12.0751" stroke="#100C08" stroke-width="2" stroke-linecap="round" stroke-linejoin="round"/>
</svg>
